<svg width="62" height="62" viewBox="0 0 62 62" fill="none" xmlns="http://www.w3.org/2000/svg">
<path d="M61 31C61 47.5685 47.5685 61 31 61C14.4315 61 1 47.5685 1 31C1 14.4315 14.4315 1 31 1C47.5685 1 61 14.4315 61 31Z" fill="#0057FF"/>
<path d="M61 31C61 47.5685 47.5685 61 31 61C14.4315 61 1 47.5685 1 31C1 14.4315 14.4315 1 31 1C47.5685 1 61 14.4315 61 31Z" fill="#0057FF"/>
<path d="M61 31C41.0002 31 21.0004 31 1 31Z" fill="#0057FF"/>
<path d="M31 61C31 41.0002 31 21.0004 31 1Z" fill="#0057FF"/>
<path d="M61 31C61 47.5685 47.5685 61 31 61M61 31C61 14.4315 47.5685 1 31 1M61 31C41.0002 31 21.0004 31 1 31M31 61C14.4315 61 1 47.5685 1 31M31 61C31 41.0002 31 21.0004 31 1M1 31C1 14.4315 14.4315 1 31 1M31.3526 45.7822C33.0134 45.7865 34.6736 45.9017 36.3303 46.1392C41.6816 46.9069 46.9714 48.9305 52.1102 51.9912C50.39 49.1068 48.7702 45.8817 47.5754 42.0586C46.1703 37.5625 45.5123 32.3149 46.1454 27.0915C46.9648 20.3316 49.5188 14.9161 52.1102 10.5708C46.9714 13.6316 41.6816 15.6551 36.3303 16.4228C34.6737 16.6604 33.0134 16.7755 31.3526 16.7798M31.3516 45.7825C26.0425 45.7964 20.7474 47.0168 15.5717 49.3708C13.898 50.1318 12.2387 51.012 10.594 51.9915C12.3141 49.1071 13.9339 45.8823 15.1287 42.0589C16.5338 37.563 17.1918 32.3152 16.5587 27.0918C15.7394 20.3319 13.1853 14.9162 10.594 10.5711C12.2388 11.5508 13.898 12.4308 15.5717 13.1919C20.7474 15.5458 26.0425 16.766 31.3516 16.7801" stroke="black" stroke-width="0.8" stroke-miterlimit="10"/>
</svg>
